<svg xmlns="http://www.w3.org/2000/svg" width="24" height="21.353" viewBox="0 0 24 21.353"><defs><style>.a{fill:#2d639d;}</style></defs><g transform="translate(0 -28.24)"><path class="a" d="M14.672,36.218V28.24H0v9.875H2.719v3.5l3.5-3.5H9.188v7.978H17.64l3.5,3.5v-3.5H24V36.218Zm-9.036.491L4.125,38.22V36.708H1.406V29.646H13.266v6.571H9.188v.491Zm16.957,7.978H19.734V46.2l-1.511-1.511H10.594V37.624h12Z"/><path class="a" d="M80,117.23h1.406v1.406H80Z" transform="translate(-76.25 -84.819)"/><path class="a" d="M140,117.23h1.406v1.406H140Z" transform="translate(-133.438 -84.819)"/><path class="a" d="M200,117.23h1.406v1.406H200Z" transform="translate(-190.625 -84.819)"/><path class="a" d="M279,287.43h1.406v1.406H279Z" transform="translate(-265.922 -247.04)"/><path class="a" d="M339,287.43h1.406v1.406H339Z" transform="translate(-323.109 -247.04)"/><path class="a" d="M399,287.43h1.406v1.406H399Z" transform="translate(-380.297 -247.04)"/></g></svg>