<svg xmlns="http://www.w3.org/2000/svg" width="10.042" height="13.389" viewBox="0 0 10.042 13.389"><defs><style>.a{fill:#e53935;}</style></defs><g transform="translate(0 0)"><path class="a" d="M74.013,7.839a7.891,7.891,0,0,0-1.9-4.352A5.222,5.222,0,0,1,70.694.279a.279.279,0,0,0-.151-.248.276.276,0,0,0-.29.021,7.094,7.094,0,0,0-2.619,3.784,12.354,12.354,0,0,0-.287,2.829c-1.138-.243-1.4-1.945-1.4-1.963a.279.279,0,0,0-.4-.212c-.06.029-1.464.743-1.546,3.592C64,8.178,64,8.273,64,8.368a5.027,5.027,0,0,0,5.021,5.021h.015a5.027,5.027,0,0,0,5.006-5.021C74.042,8.229,74.013,7.839,74.013,7.839Zm-4.992,4.992a1.733,1.733,0,0,1-1.674-1.783c0-.033,0-.067,0-.109a2.261,2.261,0,0,1,.176-.886,1.019,1.019,0,0,0,.921.667.279.279,0,0,0,.279-.279,5.58,5.58,0,0,1,.107-1.269A2.7,2.7,0,0,1,69.4,8.1a3.594,3.594,0,0,0,.575,1.055,3.178,3.178,0,0,1,.715,1.742c0,.048.007.1.007.148A1.733,1.733,0,0,1,69.021,12.831Z" transform="translate(-64 0)"/></g></svg>