<svg xmlns="http://www.w3.org/2000/svg" width="21.16" height="21.16" viewBox="0 0 21.16 21.16"><defs><style>.a{fill:#146fbf;}</style></defs><g transform="translate(5.024 2.659)"><path class="a" d="M137.1,64.562a.8.8,0,0,0-1.128,0L126.4,74.1l-3.452-3.749a.8.8,0,0,0-1.173,1.08l4.014,4.359a.8.8,0,0,0,.57.257h.017a.8.8,0,0,0,.563-.233L137.1,65.69A.8.8,0,0,0,137.1,64.562Z" transform="translate(-121.568 -64.327)"/></g><path class="a" d="M20.363,9.783a.8.8,0,0,0-.8.8A8.985,8.985,0,1,1,10.58,1.595.8.8,0,1,0,10.58,0,10.58,10.58,0,1,0,21.16,10.58.8.8,0,0,0,20.363,9.783Z"/></svg>