<svg xmlns="http://www.w3.org/2000/svg" width="13.402" height="10.889" viewBox="0 0 13.402 10.889"><defs><style>.a{fill:#fff;}</style></defs><path class="a" d="M13.4,49.289a5.728,5.728,0,0,1-1.583.434A2.732,2.732,0,0,0,13.028,48.2a5.491,5.491,0,0,1-1.742.665,2.747,2.747,0,0,0-4.753,1.879,2.829,2.829,0,0,0,.064.627A7.777,7.777,0,0,1,.933,48.5a2.748,2.748,0,0,0,.844,3.672,2.713,2.713,0,0,1-1.241-.338v.03a2.76,2.76,0,0,0,2.2,2.7,2.742,2.742,0,0,1-.72.09,2.429,2.429,0,0,1-.52-.047,2.774,2.774,0,0,0,2.567,1.914A5.521,5.521,0,0,1,.658,57.694,5.146,5.146,0,0,1,0,57.656a7.735,7.735,0,0,0,4.215,1.233,7.766,7.766,0,0,0,7.82-7.818c0-.121,0-.239-.01-.355A5.481,5.481,0,0,0,13.4,49.289Z" transform="translate(0 -48)"/></svg>