<svg xmlns="http://www.w3.org/2000/svg" width="8.046" height="5.747" viewBox="0 0 8.046 5.747"><defs><style>.a{fill:#e53935;}</style></defs><g transform="translate(0 0)"><path class="a" d="M7.871,73.256a.313.313,0,0,0-.112-.022.267.267,0,0,0-.2.085l-1.809,1.8v-.741A1.3,1.3,0,0,0,4.454,73.09H1.293a1.246,1.246,0,0,0-.914.379A1.246,1.246,0,0,0,0,74.383v3.161a1.245,1.245,0,0,0,.379.914,1.246,1.246,0,0,0,.914.379H4.454a1.3,1.3,0,0,0,1.293-1.293V76.8l1.809,1.809a.267.267,0,0,0,.2.085.313.313,0,0,0,.112-.022.268.268,0,0,0,.175-.265V73.521A.269.269,0,0,0,7.871,73.256Z" transform="translate(0 -73.09)"/></g></svg>