<svg xmlns="http://www.w3.org/2000/svg" width="18.344" height="18.67" viewBox="0 0 18.344 18.67"><defs><style>.a{fill:#2d639d;}</style></defs><g transform="translate(-4.457)"><g transform="translate(4.457)"><path class="a" d="M251.692,148.848h4.667a.321.321,0,0,0,.333-.333v-2a.321.321,0,0,0-.333-.333h-4.667a.321.321,0,0,0-.333.333v2a.321.321,0,0,0,.333.333Z" transform="translate(-242.349 -140.847)"/><path class="a" d="M251.7,2.667h2.667a.321.321,0,0,0,.333-.333v-2A.321.321,0,0,0,254.362,0H251.7a.321.321,0,0,0-.333.333v2a.321.321,0,0,0,.333.333Z" transform="translate(-242.352)"/><path class="a" d="M11.466,14.669h-2V.333A.321.321,0,0,0,9.132,0h-2A.321.321,0,0,0,6.8.333V14.669h-2a.309.309,0,0,0-.313.208.317.317,0,0,0,.073.365l3.334,3.334a.375.375,0,0,0,.24.093.348.348,0,0,0,.24-.093L11.7,15.253a.391.391,0,0,0,.1-.25.321.321,0,0,0-.333-.334Z" transform="translate(-4.457)"/><path class="a" d="M260.6,438.63a.324.324,0,0,0-.24-.094H251.7a.321.321,0,0,0-.333.333v2a.321.321,0,0,0,.333.333h8.668a.321.321,0,0,0,.333-.333v-2A.324.324,0,0,0,260.6,438.63Z" transform="translate(-242.352 -422.533)"/><path class="a" d="M251.692,295.031h6.668a.32.32,0,0,0,.333-.333v-2a.32.32,0,0,0-.333-.333h-6.668a.321.321,0,0,0-.333.333v2a.321.321,0,0,0,.333.333Z" transform="translate(-242.349 -281.695)"/></g></g></svg>