<svg xmlns="http://www.w3.org/2000/svg" width="20.392" height="18.538" viewBox="0 0 20.392 18.538"><defs><style>.a{fill:#919191;}</style></defs><g transform="translate(0 0)"><rect class="a" width="3.708" height="11.123" transform="translate(0 7.415)"/><path class="a" d="M142.83,29.675a1.853,1.853,0,0,0-1.854-1.854h-5.853l.885-4.236a1.481,1.481,0,0,0,.032-.292,1.387,1.387,0,0,0-.408-.982l-.987-.978-6.1,6.1A1.866,1.866,0,0,0,128,28.748v9.269a1.853,1.853,0,0,0,1.854,1.854H138.2A1.848,1.848,0,0,0,139.9,38.74l2.795-6.535a1.854,1.854,0,0,0,.134-.677V29.754l-.009-.009Z" transform="translate(-122.439 -21.333)"/></g></svg>