<svg xmlns="http://www.w3.org/2000/svg" width="17.105" height="18.66" viewBox="0 0 17.105 18.66"><defs><style>.a{fill:#919191;}</style></defs><path class="a" d="M319.722,18.527A2.527,2.527,0,1,1,317.195,16,2.527,2.527,0,0,1,319.722,18.527Zm0,0" transform="translate(-303.2 -15.417)"/><path class="a" d="M301.778,6.22a3.11,3.11,0,1,1,3.11-3.11A3.113,3.113,0,0,1,301.778,6.22Zm0-5.054a1.944,1.944,0,1,0,1.944,1.944A1.946,1.946,0,0,0,301.778,1.166Zm0,0" transform="translate(-287.783)"/><path class="a" d="M319.722,359.859a2.527,2.527,0,1,1-2.527-2.527A2.527,2.527,0,0,1,319.722,359.859Zm0,0" transform="translate(-303.2 -344.309)"/><path class="a" d="M301.778,347.552a3.11,3.11,0,1,1,3.11-3.11A3.113,3.113,0,0,1,301.778,347.552Zm0-5.054a1.944,1.944,0,1,0,1.944,1.944A1.946,1.946,0,0,0,301.778,342.5Zm0,0" transform="translate(-287.783 -328.892)"/><path class="a" d="M21.054,189.195a2.527,2.527,0,1,1-2.527-2.527A2.527,2.527,0,0,1,21.054,189.195Zm0,0" transform="translate(-15.417 -179.865)"/><path class="a" d="M3.11,176.888a3.11,3.11,0,1,1,3.11-3.11A3.113,3.113,0,0,1,3.11,176.888Zm0-5.054a1.944,1.944,0,1,0,1.944,1.944A1.946,1.946,0,0,0,3.11,171.834Zm0,0" transform="translate(0 -164.448)"/><path class="a" d="M115.127,95.884a.778.778,0,0,1-.386-1.453l7.214-4.113a.778.778,0,1,1,.77,1.351l-7.214,4.113A.772.772,0,0,1,115.127,95.884Zm0,0" transform="translate(-110.181 -86.927)"/><path class="a" d="M122.362,271.888a.773.773,0,0,1-.384-.1l-7.214-4.113a.778.778,0,1,1,.77-1.351l7.214,4.113a.778.778,0,0,1-.386,1.453Zm0,0" transform="translate(-110.203 -256.516)"/></svg>