<svg xmlns="http://www.w3.org/2000/svg" width="13" height="13" viewBox="0 0 13 13"><defs><style>.a{fill:#2d639d;}</style></defs><path class="a" d="M236.487,324.15h-9.455a1.775,1.775,0,0,0-1.773,1.773v9.455a1.773,1.773,0,0,0,1.773,1.773h9.455a1.775,1.775,0,0,0,1.773-1.773v-9.455A1.776,1.776,0,0,0,236.487,324.15Zm.591,7.88H234.32v-2.758h2.758Zm0,3.347a.593.593,0,0,1-.591.591H234.32v-2.756h2.758Zm-10.637,0v-2.165h6.7v2.756h-6.105A.591.591,0,0,1,226.442,335.377Zm0-6.105h6.7v2.758h-6.7Zm0-3.349a.591.591,0,0,1,.591-.591h6.105v2.758h-6.7Zm7.878,2.167v-2.758h2.167a.593.593,0,0,1,.591.591v2.167Z" transform="translate(-225.26 -324.15)"/></svg>