<svg xmlns="http://www.w3.org/2000/svg" width="10.909" height="14.545" viewBox="0 0 10.909 14.545"><defs><style>.a{fill:#919191;}</style></defs><g transform="translate(0)"><g transform="translate(0 0)"><path class="a" d="M74.877,8.516A8.573,8.573,0,0,0,72.81,3.788,5.673,5.673,0,0,1,71.272.3a.3.3,0,0,0-.165-.27.3.3,0,0,0-.315.023,7.707,7.707,0,0,0-2.845,4.111,13.421,13.421,0,0,0-.312,3.073c-1.236-.264-1.516-2.112-1.519-2.133a.3.3,0,0,0-.432-.23c-.065.031-1.591.807-1.679,3.9-.006.1-.007.206-.007.31a5.46,5.46,0,0,0,5.454,5.454h.016A5.461,5.461,0,0,0,74.909,9.09C74.909,8.939,74.877,8.516,74.877,8.516Zm-5.423,5.423A1.882,1.882,0,0,1,67.636,12c0-.036,0-.073,0-.118a2.456,2.456,0,0,1,.191-.962,1.107,1.107,0,0,0,1,.725.3.3,0,0,0,.3-.3,6.062,6.062,0,0,1,.116-1.378A2.93,2.93,0,0,1,69.863,8.8a3.9,3.9,0,0,0,.625,1.146,3.452,3.452,0,0,1,.777,1.892c0,.052.008.1.008.161A1.882,1.882,0,0,1,69.454,13.938Z" transform="translate(-64 0)"/></g></g></svg>