<svg xmlns="http://www.w3.org/2000/svg" width="12.263" height="16.351" viewBox="0 0 12.263 16.351"><defs><style>.a{fill:#989898;}</style></defs><g transform="translate(0 0)"><path class="a" d="M76.229,9.574A9.637,9.637,0,0,0,73.9,4.258C72.977,3.01,72.176,1.932,72.176.341a.341.341,0,0,0-.185-.3.337.337,0,0,0-.354.026,8.664,8.664,0,0,0-3.2,4.622,15.086,15.086,0,0,0-.35,3.455c-1.389-.3-1.7-2.375-1.707-2.4a.341.341,0,0,0-.486-.258c-.073.035-1.788.907-1.888,4.387C64,9.987,64,10.1,64,10.22a6.139,6.139,0,0,0,6.132,6.131h.018a6.139,6.139,0,0,0,6.114-6.131C76.263,10.05,76.229,9.574,76.229,9.574Zm-6.1,6.1a2.116,2.116,0,0,1-2.044-2.177c0-.041,0-.082,0-.133a2.761,2.761,0,0,1,.215-1.082,1.244,1.244,0,0,0,1.125.815.34.34,0,0,0,.341-.341A6.814,6.814,0,0,1,69.9,11.2a3.3,3.3,0,0,1,.69-1.306,4.389,4.389,0,0,0,.7,1.288,3.881,3.881,0,0,1,.873,2.127c0,.059.009.117.009.181A2.116,2.116,0,0,1,70.132,15.67Z" transform="translate(-64 0)"/></g></svg>