<svg xmlns="http://www.w3.org/2000/svg" width="20.167" height="22" viewBox="0 0 20.167 22"><defs><style>.a{fill:#777;}</style></defs><path class="a" d="M320.626,18.979A2.979,2.979,0,1,1,317.647,16,2.979,2.979,0,0,1,320.626,18.979Zm0,0" transform="translate(-301.147 -15.313)"/><path class="a" d="M302.335,7.333A3.667,3.667,0,1,1,306,3.667,3.67,3.67,0,0,1,302.335,7.333Zm0-5.958a2.292,2.292,0,1,0,2.292,2.292A2.294,2.294,0,0,0,302.335,1.375Zm0,0" transform="translate(-285.835 0)"/><path class="a" d="M320.626,360.311a2.979,2.979,0,1,1-2.979-2.979A2.979,2.979,0,0,1,320.626,360.311Zm0,0" transform="translate(-301.147 -341.978)"/><path class="a" d="M302.335,348.665A3.667,3.667,0,1,1,306,345,3.67,3.67,0,0,1,302.335,348.665Zm0-5.958A2.292,2.292,0,1,0,304.626,345,2.294,2.294,0,0,0,302.335,342.707Zm0,0" transform="translate(-285.835 -326.665)"/><path class="a" d="M21.958,189.647a2.979,2.979,0,1,1-2.979-2.979A2.979,2.979,0,0,1,21.958,189.647Zm0,0" transform="translate(-15.313 -178.647)"/><path class="a" d="M3.667,178a3.667,3.667,0,1,1,3.667-3.667A3.67,3.67,0,0,1,3.667,178Zm0-5.958a2.292,2.292,0,1,0,2.292,2.292A2.294,2.294,0,0,0,3.667,172.043Zm0,0" transform="translate(0 -163.335)"/><path class="a" d="M115.266,96.9a.917.917,0,0,1-.455-1.713l8.506-4.849a.917.917,0,1,1,.908,1.593l-8.506,4.849A.911.911,0,0,1,115.266,96.9Zm0,0" transform="translate(-109.435 -86.338)"/><path class="a" d="M123.792,272.9a.912.912,0,0,1-.453-.12l-8.506-4.849a.917.917,0,1,1,.908-1.593l8.506,4.849a.917.917,0,0,1-.455,1.713Zm0,0" transform="translate(-109.457 -254.78)"/></svg>