<svg xmlns="http://www.w3.org/2000/svg" width="22.575" height="20.523" viewBox="0 0 22.575 20.523"><defs><style>.a{fill:#777;}</style></defs><g transform="translate(0 0)"><rect class="a" width="4.105" height="12.314" transform="translate(0 8.209)"/><path class="a" d="M144.418,30.568a2.052,2.052,0,0,0-2.052-2.052h-6.48l.98-4.689a1.641,1.641,0,0,0,.036-.323,1.535,1.535,0,0,0-.451-1.088l-1.093-1.083L128.6,28.09a2.065,2.065,0,0,0-.6,1.452V39.8a2.052,2.052,0,0,0,2.052,2.052h9.235a2.046,2.046,0,0,0,1.888-1.252l3.094-7.234a2.053,2.053,0,0,0,.149-.749V30.655l-.01-.01Z" transform="translate(-121.843 -21.333)"/></g></svg>